<?xml version="1.0" encoding="UTF-8"?> <svg xmlns="http://www.w3.org/2000/svg" width="142" height="142" viewBox="0 0 142 142" fill="none"><g clip-path="url(#clip0)"><path d="M138.521 119.015L125.333 109.954C124.369 109.292 123.116 109.218 122.081 109.763C121.046 110.308 120.398 111.381 120.398 112.551V116.011H98.8519C103.379 112.366 107.286 107.951 110.338 103.003C113.525 97.8372 115.773 92.1044 116.935 86.1469H121.194C122.364 86.1469 123.437 85.4986 123.982 84.4635C124.527 83.428 124.453 82.1761 123.791 81.2119L114.729 68.0238C114.141 67.1684 113.17 66.6574 112.132 66.6574C111.095 66.6574 110.123 67.1686 109.536 68.0238L100.474 81.2119C99.8116 82.1758 99.7378 83.428 100.283 84.4635C100.828 85.4986 101.901 86.1469 103.071 86.1469H105.462C101.109 103.291 85.5465 116.011 67.0673 116.011C52.6182 116.011 39.3103 108.138 32.3372 95.4645C30.8459 92.755 27.4397 91.7661 24.7296 93.2571C22.0192 94.7484 21.0309 98.1546 22.5222 100.865C25.7879 106.8 30.1411 111.91 35.2499 116.011H7.01422C3.92088 116.011 1.41309 118.518 1.41309 121.612C1.41309 124.706 3.92088 127.213 7.01422 127.213C9.38326 127.213 120.398 127.213 120.398 127.213V130.674C120.398 131.844 121.046 132.917 122.081 133.462C122.542 133.705 123.046 133.824 123.548 133.824C124.174 133.824 124.798 133.638 125.332 133.27L138.52 124.209C139.376 123.621 139.887 122.65 139.887 121.612C139.887 120.574 139.376 119.603 138.521 119.015Z" fill="#5C6B73"></path><path d="M55.2788 4.47441C55.2788 3.69387 55.9116 3.06141 56.6918 3.06141H58.3402V1.413C58.3402 0.632459 58.973 0 59.7532 0C60.5335 0 61.1662 0.632459 61.1662 1.413V3.06141H62.8146C63.5949 3.06141 64.2276 3.69387 64.2276 4.47441C64.2276 5.25495 63.5949 5.88741 62.8146 5.88741H61.1662V7.53581C61.1662 8.31635 60.5335 8.94881 59.7532 8.94881C58.973 8.94881 58.3402 8.31635 58.3402 7.53581V5.88741H56.6918C55.9116 5.88741 55.2788 5.25495 55.2788 4.47441ZM69.857 5.88741H71.5054V7.53581C71.5054 8.31635 72.1382 8.94881 72.9184 8.94881C73.6987 8.94881 74.3314 8.31635 74.3314 7.53581V5.88741H75.9798C76.7601 5.88741 77.3928 5.25495 77.3928 4.47441C77.3928 3.69387 76.7601 3.06141 75.9798 3.06141H74.3314V1.413C74.3314 0.632459 73.6987 0 72.9184 0C72.1382 0 71.5054 0.632459 71.5054 1.413V3.06141H69.857C69.0768 3.06141 68.444 3.69387 68.444 4.47441C68.444 5.25495 69.0768 5.88741 69.857 5.88741ZM110.557 138.474H10.9818C10.2016 138.474 9.56884 139.106 9.56884 139.887C9.56884 140.668 10.2016 141.3 10.9818 141.3H110.557C111.337 141.3 111.97 140.668 111.97 139.887C111.97 139.106 111.338 138.474 110.557 138.474ZM5.41518 138.474H3.46524C2.68498 138.474 2.05224 139.106 2.05224 139.887C2.05224 140.668 2.68498 141.3 3.46524 141.3H5.41518C6.19544 141.3 6.82818 140.668 6.82818 139.887C6.82818 139.106 6.19544 138.474 5.41518 138.474ZM9.17828 67.3778C8.21575 65.9772 8.10949 64.1725 8.90105 62.6682C9.69262 61.1642 11.2401 60.23 12.94 60.23H16.0457C21.2543 36.3633 42.5259 19.1631 67.0664 19.1631C85.9562 19.1631 103.428 29.4119 112.664 45.9098C113.579 47.5446 113.803 49.4378 113.294 51.241C112.785 53.044 111.604 54.5412 109.97 55.4563C108.335 56.3714 106.442 56.5957 104.638 56.0862C102.835 55.5772 101.338 54.3968 100.423 52.762C93.6652 40.6904 80.8838 33.1914 67.0664 33.1914C50.1838 33.1914 35.4149 44.2193 30.5327 60.23H31.0625C32.7621 60.23 34.3096 61.1642 35.1012 62.6682C35.8927 64.1725 35.7865 65.9772 34.824 67.3778L25.7624 80.5659C24.9106 81.8056 23.5047 82.5455 22.001 82.5455C20.4973 82.5455 19.091 81.8056 18.2393 80.5659L9.17828 67.3778ZM11.5075 65.7774L20.569 78.9658C20.8932 79.4377 21.4287 79.7195 22.0013 79.7195C22.5738 79.7195 23.1091 79.4377 23.4335 78.9658L32.495 65.7774C32.8616 65.2441 32.902 64.5571 32.6007 63.984C32.2995 63.4118 31.7103 63.056 31.0631 63.056H28.672C28.236 63.056 27.8242 62.8548 27.5566 62.5103C27.289 62.1661 27.1952 61.7176 27.3026 61.2951C31.9267 43.0841 48.2785 30.3654 67.0669 30.3654C81.9062 30.3654 95.6327 38.4183 102.889 51.3815C103.436 52.3576 104.33 53.0624 105.406 53.3662C106.483 53.6703 107.614 53.5369 108.59 52.99C109.566 52.4432 110.271 51.5496 110.575 50.4732C110.879 49.3968 110.745 48.2658 110.198 47.2897C101.462 31.6834 84.9352 21.9888 67.0669 21.9888C43.4859 21.9888 23.0955 38.7795 18.5835 61.9131C18.4541 62.577 17.8728 63.0557 17.1965 63.0557H12.9397C12.2923 63.0557 11.703 63.4115 11.4018 63.9837C11.1005 64.5569 11.1409 65.2441 11.5075 65.7774ZM56.9775 128.628L7.01413 128.626C3.14647 128.626 0 125.479 0 121.612C0 117.745 3.14647 114.598 7.01413 114.598H31.4545C27.3885 110.817 23.9764 106.44 21.2835 101.546C19.4191 98.1569 20.6592 93.8831 24.0476 92.0185C27.4359 90.1539 31.7097 91.3945 33.5743 94.7826C40.299 107.005 53.1325 114.598 67.0664 114.598C83.9489 114.598 98.7178 103.57 103.6 87.5591H103.07C101.37 87.5591 99.8228 86.6248 99.0312 85.1208C98.24 83.6165 98.3462 81.8119 99.3085 80.4113L108.37 67.2232C109.222 65.9834 110.628 65.2436 112.131 65.2436C113.635 65.2436 115.041 65.9834 115.893 67.2229L124.954 80.4113C125.917 81.8119 126.023 83.6163 125.232 85.1205C124.44 86.6248 122.893 87.5591 121.193 87.5591H118.085C116.834 93.2877 114.635 98.7274 111.54 103.744C106.924 111.228 100.464 117.471 92.8593 121.798C84.932 126.309 75.6554 128.607 65.2871 128.626C63.9021 128.629 62.5171 128.629 61.132 128.629C59.7473 128.63 58.3626 128.629 56.9775 128.628ZM7.01413 125.8L56.9789 125.802C59.7464 125.804 62.5142 125.805 65.282 125.8C75.2951 125.782 83.8587 123.669 91.4618 119.342C98.6557 115.249 104.767 109.342 109.135 102.261C112.256 97.202 114.413 91.6893 115.548 85.8756C115.677 85.2118 116.258 84.7331 116.934 84.7331H121.193C121.84 84.7331 122.429 84.3773 122.731 83.805C123.032 83.2322 122.991 82.5449 122.625 82.0117L113.564 68.8233C113.24 68.3513 112.704 68.0696 112.131 68.0696C111.559 68.0696 111.024 68.3513 110.699 68.8233L101.638 82.0117C101.271 82.5449 101.231 83.2319 101.532 83.8053C101.833 84.3773 102.422 84.7331 103.07 84.7331H105.461C105.897 84.7331 106.308 84.9343 106.576 85.2788C106.844 85.623 106.938 86.0715 106.83 86.494C102.206 104.705 85.8542 117.424 67.0658 117.424C52.1013 117.424 38.3191 109.27 31.0979 96.1451C29.9847 94.1219 27.4328 93.3815 25.4094 94.4944C23.3863 95.6075 22.6459 98.1597 23.7593 100.183C26.8928 105.878 31.056 110.833 36.1335 114.909C36.6009 115.284 36.781 115.914 36.5817 116.48C36.3825 117.045 35.8484 117.424 35.2487 117.424H7.01413C4.70473 117.424 2.826 119.302 2.826 121.612C2.826 123.921 4.70473 125.8 7.01413 125.8ZM139.321 117.85L126.133 108.789C124.732 107.827 122.927 107.72 121.423 108.512C119.919 109.304 118.984 110.851 118.984 112.551V114.598H108.106C107.325 114.598 106.693 115.23 106.693 116.011C106.693 116.792 107.325 117.424 108.106 117.424H120.397C121.178 117.424 121.811 116.792 121.811 116.011V112.551C121.811 111.904 122.166 111.314 122.739 111.013C123.312 110.711 123.999 110.752 124.532 111.119L137.72 120.18C138.192 120.504 138.474 121.04 138.474 121.612C138.474 122.185 138.192 122.72 137.72 123.044L124.533 132.106C124.01 132.465 123.3 132.507 122.739 132.211C122.166 131.91 121.811 131.321 121.811 130.674V127.213C121.811 126.433 121.178 125.8 120.397 125.8H98.2083C97.428 125.8 96.7953 126.433 96.7953 127.213C96.7953 127.994 97.428 128.626 98.2083 128.626H118.984V130.674C118.984 132.374 119.919 133.921 121.423 134.712C122.075 135.056 122.81 135.237 123.548 135.237C124.475 135.237 125.368 134.96 126.133 134.435L139.321 125.374C140.56 124.522 141.3 123.116 141.3 121.612C141.3 120.108 140.56 118.702 139.321 117.85ZM92.5925 125.8C91.8122 125.8 91.1795 126.433 91.1795 127.213C91.1795 127.994 91.8122 128.626 92.5925 128.626H93.7181C94.4983 128.626 95.1311 127.994 95.1311 127.213C95.1311 126.433 94.4983 125.8 93.7181 125.8H92.5925Z" fill="#5C6B73"></path><path d="M19.4047 79.7658C19.9925 80.6212 20.9638 81.1322 22.0015 81.1322C23.0392 81.1322 24.0105 80.6209 24.5983 79.7658L33.6598 66.5777C34.3223 65.6138 34.396 64.3616 33.8512 63.3261C33.3063 62.2909 32.2327 61.6427 31.0628 61.6427H28.6717C33.0248 44.4987 48.5873 31.7784 67.0666 31.7784C81.3949 31.7784 94.6486 39.5544 101.656 52.0716C103.167 54.7707 106.58 55.7343 109.28 54.223C111.979 52.7119 112.942 49.299 111.431 46.5996C102.446 30.5476 85.446 20.5758 67.0668 20.5758C42.3817 20.5758 21.755 38.2711 17.1967 61.6427H12.9399C11.7699 61.6427 10.6963 62.2909 10.1515 63.3261C9.60663 64.3616 9.68067 65.6135 10.3428 66.5777L19.4047 79.7658Z" fill="url(#paint0_linear)" stroke="url(#paint1_linear)" stroke-width="3"></path></g><defs><linearGradient id="paint0_linear" x1="9.78906" y1="50.854" x2="84.4256" y2="113.932" gradientUnits="userSpaceOnUse"><stop stop-color="#FEA860"></stop><stop offset="1" stop-color="#FA6661"></stop></linearGradient><linearGradient id="paint1_linear" x1="9.78906" y1="50.854" x2="84.4256" y2="113.932" gradientUnits="userSpaceOnUse"><stop stop-color="#FEA860"></stop><stop offset="1" stop-color="#FA6661"></stop></linearGradient><clipPath id="clip0"><rect width="141.3" height="141.3" fill="white"></rect></clipPath></defs></svg> 