<?xml version="1.0" encoding="UTF-8"?> <svg xmlns="http://www.w3.org/2000/svg" width="140" height="140" viewBox="0 0 140 140" fill="none"><path d="M117.235 61.9788C111.505 61.9788 106.696 65.4589 103.642 69.6956C100.59 65.4589 95.7783 61.9788 90.0481 61.9788C80.9147 61.9788 73.6156 69.0952 72.6614 78.9136C72.561 79.5597 72.3146 81.8486 73.1995 85.4224C74.5029 90.6991 77.5043 95.4882 81.8833 99.283L101.803 116.398C102.336 116.857 102.989 117.087 103.644 117.087C104.295 117.087 104.948 116.859 105.481 116.403L125.405 99.2782C129.779 95.493 132.781 90.7039 134.086 85.4248C134.969 81.8486 134.725 79.5621 134.624 78.916C133.67 69.0952 126.371 61.9788 117.235 61.9788ZM129.442 84.2671C128.378 88.5759 125.902 92.5076 122.289 95.6323L103.644 111.657L85.0019 95.6371C81.381 92.5028 78.9058 88.5735 77.8439 84.2647C77.1217 81.3514 77.3824 79.711 77.38 79.711L77.4206 79.4564C78.0042 73.1614 82.5314 66.7871 90.0505 66.7871C95.2856 66.7871 99.5545 71.1367 101.458 75.4455L103.644 80.3955L105.83 75.4455C107.734 71.1343 112 66.7871 117.238 66.7871C124.762 66.7871 129.286 73.1614 129.904 79.6798C129.904 79.6918 130.167 81.3346 129.442 84.2671Z" fill="url(#paint0_linear)" stroke="url(#paint1_linear)" stroke-width="2" stroke-linejoin="round"></path><path d="M113.088 33.0038C113.088 27.792 108.867 23.5505 103.677 23.5505C98.4872 23.5505 94.2637 27.792 94.2637 33.0038C94.2637 38.2156 98.4872 42.4548 103.677 42.4548C108.867 42.4548 113.088 38.2156 113.088 33.0038ZM99.0492 33.0038C99.0492 30.4411 101.125 28.354 103.679 28.354C106.229 28.354 108.307 30.4387 108.307 33.0038C108.307 35.5641 106.231 37.6512 103.679 37.6512C101.125 37.6488 99.0492 35.5641 99.0492 33.0038Z" fill="url(#paint2_linear)"></path><path d="M110.541 1.93463H77.0496L16.543 62.4999L16.5645 62.5192L2.20557 76.9009L62.3128 137.394L80.7613 119.652L23.347 62.5095L79.025 6.73816H108.566L132.34 30.5613V61.5344H137.123V28.5678L110.541 1.93463ZM73.9071 119.592L62.3869 130.672L8.96891 76.9105L19.9605 65.9008L73.9071 119.592Z" fill="#5C6B73" stroke="#5C6B73" stroke-width="3"></path><defs><linearGradient id="paint0_linear" x1="72.5522" y1="89.533" x2="131.512" y2="122.796" gradientUnits="userSpaceOnUse"><stop stop-color="#FEA860"></stop><stop offset="1" stop-color="#FA6661"></stop></linearGradient><linearGradient id="paint1_linear" x1="72.5522" y1="89.533" x2="131.512" y2="122.796" gradientUnits="userSpaceOnUse"><stop stop-color="#FEA860"></stop><stop offset="1" stop-color="#FA6661"></stop></linearGradient><linearGradient id="paint2_linear" x1="94.2637" y1="33.0026" x2="113.12" y2="42.3906" gradientUnits="userSpaceOnUse"><stop stop-color="#FEA860"></stop><stop offset="1" stop-color="#FA6661"></stop></linearGradient></defs></svg> 